<?xml version="1.0" encoding="UTF-8"?>
<svg width="392px" height="310px" viewBox="0 0 392 310" version="1.1" xmlns="http://www.w3.org/2000/svg" xmlns:xlink="http://www.w3.org/1999/xlink">
    <!-- Generator: Sketch 60 (88103) - https://sketch.com -->
    <title>internet subvertical</title>
    <desc>Created with Sketch.</desc>
    <defs>
        <polygon id="path-1" points="0 0.187679061 88.913239 0.187679061 88.913239 95.6242661 0 95.6242661"></polygon>
        <polygon id="path-3" points="0 95.624454 88.913239 95.624454 88.913239 0.187866928 0 0.187866928"></polygon>
        <polygon id="path-5" points="0.113139621 0.119642399 12.1889575 0.119642399 12.1889575 30.4829074 0.113139621 30.4829074"></polygon>
        <polygon id="path-7" points="0.201063961 0.382229958 16.5123124 0.382229958 16.5123124 10.0606304 0.201063961 10.0606304"></polygon>
        <polygon id="path-9" points="0 0.256033462 73.9901008 0.256033462 73.9901008 21.4652348 0 21.4652348"></polygon>
        <polygon id="path-11" points="6.8503937e-05 0.17325915 86.9977736 0.17325915 86.9977736 88.2771674 6.8503937e-05 88.2771674"></polygon>
    </defs>
    <g id="Page-1" stroke="none" stroke-width="1" fill="none" fill-rule="evenodd">
        <g id="Artboard" transform="translate(-1136.000000, -4192.000000)">
            <g id="internet-subvertical" transform="translate(1124.000000, 4186.000000)">
                <g id="Group-9-Copy-6" transform="translate(12.000000, 0.000000)">
                    <path d="M137.122058,14.8163425 C61.6294159,44.6922512 90.8804515,74.7349481 23.0791242,127.17619 C-35.4988693,172.483603 32.4682827,235.1663 61.5008764,239.094389 C119.508034,246.942714 143.709644,316 194.552175,316 C245.394706,316 283.840453,236.072487 324.976747,239.094389 C330.527036,239.502117 413.569659,239.502117 386.641869,147.057171 C376.980429,113.888789 340.25501,77.5634839 309.379686,74.7349481 C253.73808,69.6375351 249.112971,46.1655192 248.374022,43.250927 C247.635074,40.3363348 212.6147,-15.0595661 137.122058,14.8163425 Z" id="Path-2-Copy-2" fill="#D2DADE" opacity="0.346330915"></path>
                    <g id="Group-24-Copy-2" transform="translate(16.000000, 0.000000)">
                        <g id="Group-26" transform="translate(77.687500, 37.731125)" fill="#D5D9E5">
                            <path d="M27.0841145,15.7401446 C27.0897434,22.0523531 21.9811376,27.1632079 15.6717085,27.1575747 C9.36227934,27.1519322 4.24454254,22.0319394 4.2389043,15.7197309 C4.23327537,9.40752232 9.34188123,4.29666749 15.6513104,4.30230073 C21.9607395,4.30794328 27.0784763,9.42793602 27.0841145,15.7401446" id="Fill-24" transform="translate(15.661509, 15.729938) rotate(118.000000) translate(-15.661509, -15.729938) "></path>
                        </g>
                        <g id="Group-26-Copy" transform="translate(321.867917, 246.966477) rotate(14.000000) translate(-321.867917, -246.966477) translate(309.867917, 234.966477)" fill="#D5D9E5">
                            <path d="M20.6074784,11.976197 C20.6117613,16.7789643 16.7247786,20.6676582 11.924126,20.6633721 C7.12347341,20.6590788 3.22954324,16.7634322 3.22525327,11.9606648 C3.22097039,7.15789742 7.10795311,3.26920353 11.9086057,3.27348968 C16.7092583,3.27778293 20.6031885,7.17342958 20.6074784,11.976197" id="Fill-24" transform="translate(11.916366, 11.968431) rotate(118.000000) translate(-11.916366, -11.968431) "></path>
                        </g>
                        <g id="Group-26-Copy-2" transform="translate(166.000000, 270.558447) rotate(14.000000) translate(-166.000000, -270.558447) translate(154.000000, 258.558447)" fill="#D5D9E5">
                            <path d="M20.6074784,11.976197 C20.6117613,16.7789643 16.7247786,20.6676582 11.924126,20.6633721 C7.12347341,20.6590788 3.22954324,16.7634322 3.22525327,11.9606648 C3.22097039,7.15789742 7.10795311,3.26920353 11.9086057,3.27348968 C16.7092583,3.27778293 20.6031885,7.17342958 20.6074784,11.976197" id="Fill-24" transform="translate(11.916366, 11.968431) rotate(118.000000) translate(-11.916366, -11.968431) "></path>
                        </g>
                        <g id="Group-26-Copy-6" transform="translate(18.877173, 131.360111) rotate(14.000000) translate(-18.877173, -131.360111) translate(6.877173, 119.360111)" fill="#D5D9E5">
                            <path d="M20.6074784,11.976197 C20.6117613,16.7789643 16.7247786,20.6676582 11.924126,20.6633721 C7.12347341,20.6590788 3.22954324,16.7634322 3.22525327,11.9606648 C3.22097039,7.15789742 7.10795311,3.26920353 11.9086057,3.27348968 C16.7092583,3.27778293 20.6031885,7.17342958 20.6074784,11.976197" id="Fill-24" transform="translate(11.916366, 11.968431) rotate(118.000000) translate(-11.916366, -11.968431) "></path>
                        </g>
                        <g id="Group-14" transform="translate(105.187500, 0.000000)" fill="#3E5F93">
                            <path d="M24.8651832,11.9878429 C17.6950062,11.9878429 11.8613617,17.8852725 11.8613617,25.1338483 C11.8613617,32.3824241 17.6950062,38.2798537 24.8651832,38.2798537 C32.0353603,38.2798537 37.8690048,32.3824241 37.8690048,25.1338483 C37.8690048,17.8852725 32.0353603,11.9878429 24.8651832,11.9878429 M24.8651832,43.5382559 C14.8277616,43.5382559 6.65983304,35.2831075 6.65983304,25.1338483 C6.65983304,14.9866775 14.8277616,6.72944075 24.8651832,6.72944075 C34.9026048,6.72944075 43.0705334,14.9866775 43.0705334,25.1338483 C43.0705334,35.2831075 34.9026048,43.5382559 24.8651832,43.5382559" id="Fill-12" transform="translate(24.865183, 25.133848) rotate(118.000000) translate(-24.865183, -25.133848) "></path>
                        </g>
                        <g id="Group-14-Copy" transform="translate(154.000000, 43.905310)" fill="#3E5F93">
                            <path d="M16.2282395,7.55398321 C11.7468788,7.55398321 8.10085104,11.2701717 8.10085104,15.8377674 C8.10085104,20.4053632 11.7468788,24.1215517 16.2282395,24.1215517 C20.7096002,24.1215517 24.355628,20.4053632 24.355628,15.8377674 C24.355628,11.2701717 20.7096002,7.55398321 16.2282395,7.55398321 M16.2282395,27.4350654 C9.95485102,27.4350654 4.84989565,22.233191 4.84989565,15.8377674 C4.84989565,9.4436598 9.95485102,4.24046952 16.2282395,4.24046952 C22.501628,4.24046952 27.6065834,9.4436598 27.6065834,15.8377674 C27.6065834,22.233191 22.501628,27.4350654 16.2282395,27.4350654" id="Fill-12" transform="translate(16.228240, 15.837767) rotate(118.000000) translate(-16.228240, -15.837767) "></path>
                        </g>
                        <g id="Group-14-Copy-2" transform="translate(332.489698, 192.340445) rotate(14.000000) translate(-332.489698, -192.340445) translate(319.989698, 180.340445)" fill="#3E5F93">
                            <path d="M12.4301409,5.74759592 C8.99760933,5.74759592 6.20490718,8.57513065 6.20490718,12.0504752 C6.20490718,15.5258198 8.99760933,18.3533545 12.4301409,18.3533545 C15.8626725,18.3533545 18.6553746,15.5258198 18.6553746,12.0504752 C18.6553746,8.57513065 15.8626725,5.74759592 12.4301409,5.74759592 M12.4301409,20.8745063 C7.62499227,20.8745063 3.71481369,16.9165584 3.71481369,12.0504752 C3.71481369,7.18539333 7.62499227,3.2264442 12.4301409,3.2264442 C17.2352895,3.2264442 21.1454681,7.18539333 21.1454681,12.0504752 C21.1454681,16.9165584 17.2352895,20.8745063 12.4301409,20.8745063" id="Fill-12" transform="translate(12.430141, 12.050475) rotate(118.000000) translate(-12.430141, -12.050475) "></path>
                        </g>
                        <g id="Group-14-Copy-3" transform="translate(341.941675, 225.920683) rotate(14.000000) translate(-341.941675, -225.920683) translate(333.441675, 217.920683)" fill="#3E5F93">
                            <path d="M8.2867606,3.7769916 C5.99840622,3.7769916 4.13660479,5.63508586 4.13660479,7.91888372 C4.13660479,10.2026816 5.99840622,12.0607758 8.2867606,12.0607758 C10.575115,12.0607758 12.4369164,10.2026816 12.4369164,7.91888372 C12.4369164,5.63508586 10.575115,3.7769916 8.2867606,3.7769916 M8.2867606,13.7175327 C5.08332818,13.7175327 2.47654246,11.1165955 2.47654246,7.91888372 C2.47654246,4.7218299 5.08332818,2.12023476 8.2867606,2.12023476 C11.490193,2.12023476 14.0969787,4.7218299 14.0969787,7.91888372 C14.0969787,11.1165955 11.490193,13.7175327 8.2867606,13.7175327" id="Fill-12" transform="translate(8.286761, 7.918884) rotate(118.000000) translate(-8.286761, -7.918884) "></path>
                        </g>
                        <g id="Group-14-Copy-15" transform="translate(46.278188, 88.321560) rotate(14.000000) translate(-46.278188, -88.321560) translate(37.778188, 80.321560)" fill="#3E5F93">
                            <path d="M8.2867606,3.7769916 C5.99840622,3.7769916 4.13660479,5.63508586 4.13660479,7.91888372 C4.13660479,10.2026816 5.99840622,12.0607758 8.2867606,12.0607758 C10.575115,12.0607758 12.4369164,10.2026816 12.4369164,7.91888372 C12.4369164,5.63508586 10.575115,3.7769916 8.2867606,3.7769916 M8.2867606,13.7175327 C5.08332818,13.7175327 2.47654246,11.1165955 2.47654246,7.91888372 C2.47654246,4.7218299 5.08332818,2.12023476 8.2867606,2.12023476 C11.490193,2.12023476 14.0969787,4.7218299 14.0969787,7.91888372 C14.0969787,11.1165955 11.490193,13.7175327 8.2867606,13.7175327" id="Fill-12" transform="translate(8.286761, 7.918884) rotate(118.000000) translate(-8.286761, -7.918884) "></path>
                        </g>
                        <g id="Group-14-Copy-16" transform="translate(254.500000, 47.558447) rotate(14.000000) translate(-254.500000, -47.558447) translate(246.000000, 39.558447)" fill="#3E5F93">
                            <path d="M8.2867606,3.7769916 C5.99840622,3.7769916 4.13660479,5.63508586 4.13660479,7.91888372 C4.13660479,10.2026816 5.99840622,12.0607758 8.2867606,12.0607758 C10.575115,12.0607758 12.4369164,10.2026816 12.4369164,7.91888372 C12.4369164,5.63508586 10.575115,3.7769916 8.2867606,3.7769916 M8.2867606,13.7175327 C5.08332818,13.7175327 2.47654246,11.1165955 2.47654246,7.91888372 C2.47654246,4.7218299 5.08332818,2.12023476 8.2867606,2.12023476 C11.490193,2.12023476 14.0969787,4.7218299 14.0969787,7.91888372 C14.0969787,11.1165955 11.490193,13.7175327 8.2867606,13.7175327" id="Fill-12" transform="translate(8.286761, 7.918884) rotate(118.000000) translate(-8.286761, -7.918884) "></path>
                        </g>
                        <g id="Group-14-Copy-14" transform="translate(164.528188, 305.104026) rotate(14.000000) translate(-164.528188, -305.104026) translate(156.028188, 297.104026)" fill="#3E5F93">
                            <path d="M8.2867606,3.7769916 C5.99840622,3.7769916 4.13660479,5.63508586 4.13660479,7.91888372 C4.13660479,10.2026816 5.99840622,12.0607758 8.2867606,12.0607758 C10.575115,12.0607758 12.4369164,10.2026816 12.4369164,7.91888372 C12.4369164,5.63508586 10.575115,3.7769916 8.2867606,3.7769916 M8.2867606,13.7175327 C5.08332818,13.7175327 2.47654246,11.1165955 2.47654246,7.91888372 C2.47654246,4.7218299 5.08332818,2.12023476 8.2867606,2.12023476 C11.490193,2.12023476 14.0969787,4.7218299 14.0969787,7.91888372 C14.0969787,11.1165955 11.490193,13.7175327 8.2867606,13.7175327" id="Fill-12" transform="translate(8.286761, 7.918884) rotate(118.000000) translate(-8.286761, -7.918884) "></path>
                        </g>
                        <path d="M128.22038,72.718169 C124.991183,72.718169 122.375,70.1067748 122.375,66.8869951 C122.375,63.6672154 124.991183,61.0558212 128.22038,61.0558212 C131.447404,61.0558212 134.0625,63.6672154 134.0625,66.8869951 C134.0625,70.1067748 131.447404,72.718169 128.22038,72.718169 L128.22038,72.718169 Z M145.0625,69.8164104 L145.0625,63.818563 L140.074028,63.4048448 C139.859229,62.621126 139.567487,61.8693958 139.206282,61.1592507 L142.550097,57.2161325 L138.300065,52.9733885 L134.476425,56.2031627 C133.781801,55.8065051 133.04443,55.4780896 132.272863,55.2264466 L131.842196,50.0794938 L125.833161,50.0794938 L125.417455,55.0579737 C124.628789,55.2712305 123.877526,55.5644586 123.165803,55.9248626 L119.213925,52.58846 L114.962824,56.8280051 L118.199773,60.6431692 C117.802234,61.3362538 117.473089,62.0719898 117.219819,62.8429131 L112.0625,63.2726256 L112.0625,69.2694067 L117.053109,69.6841912 C117.265771,70.4679099 117.557513,71.2196401 117.920855,71.928719 L114.57704,75.8718372 L118.826004,80.1135149 L122.648575,76.884807 C123.343199,77.2814646 124.081639,77.6098801 124.853206,77.8615231 L125.284942,83.0084759 L131.296114,83.0084759 L131.708614,78.0310623 C132.496211,77.8167392 133.248543,77.5224448 133.959197,77.1631071 L137.912144,80.4984434 L142.162176,76.2588983 L138.926295,72.4448005 C139.323834,71.7517159 139.652979,71.0149136 139.905181,70.2439903 L145.0625,69.8164104 Z" id="Fill-1" fill="#1464A5" opacity="0.182710193"></path>
                        <path d="M247.501255,258.558447 C245.014601,258.558447 243,256.543197 243,254.058447 C243,251.573697 245.014601,249.558447 247.501255,249.558447 C249.986236,249.558447 252,251.573697 252,254.058447 C252,256.543197 249.986236,258.558447 247.501255,258.558447 L247.501255,258.558447 Z M261,256.142282 L261,251.406514 L257.069689,251.079851 C256.900453,250.461044 256.670596,249.867494 256.38601,249.306779 L259.020531,246.19338 L255.672021,242.843403 L252.659456,245.393561 C252.112176,245.080369 251.531218,244.82106 250.923316,244.622368 L250.584003,240.558447 L245.849611,240.558447 L245.522085,244.489345 C244.900712,244.657728 244.308808,244.889255 243.748057,245.173822 L240.634456,242.539472 L237.285104,245.886923 L239.835427,248.899293 C239.522215,249.446537 239.262889,250.027458 239.063342,250.636162 L235,250.975454 L235,255.71038 L238.931995,256.037885 C239.099547,256.656692 239.329404,257.250242 239.615674,257.810115 L236.981153,260.923514 L240.328821,264.272649 L243.340544,261.723333 C243.887824,262.036525 244.469624,262.295834 245.077526,262.494526 L245.417681,266.558447 L250.153756,266.558447 L250.478756,262.628391 C251.099288,262.459166 251.692034,262.226797 252.251943,261.943072 L255.366386,264.576581 L258.714896,261.229129 L256.165415,258.217601 C256.478627,257.670357 256.737953,257.088594 256.936658,256.47989 L261,256.142282 Z" id="Fill-1-Copy-2" fill="#1464A5" opacity="0.182710193"></path>
                        <path d="M121.15788,293.197122 C117.928683,293.197122 115.3125,290.585728 115.3125,287.365948 C115.3125,284.146169 117.928683,281.534774 121.15788,281.534774 C124.384904,281.534774 127,284.146169 127,287.365948 C127,290.585728 124.384904,293.197122 121.15788,293.197122 L121.15788,293.197122 Z M138,290.295364 L138,284.297516 L133.011528,283.883798 C132.796729,283.100079 132.504987,282.348349 132.143782,281.638204 L135.487597,277.695086 L131.237565,273.452342 L127.413925,276.682116 C126.719301,276.285458 125.98193,275.957043 125.210363,275.7054 L124.779696,270.558447 L118.770661,270.558447 L118.354955,275.536927 C117.566289,275.750184 116.815026,276.043412 116.103303,276.403816 L112.151425,273.067413 L107.900324,277.306958 L111.137273,281.122122 C110.739734,281.815207 110.410589,282.550943 110.157319,283.321866 L105,283.751579 L105,289.74836 L109.990609,290.163144 C110.203271,290.946863 110.495013,291.698593 110.858355,292.407672 L107.51454,296.35079 L111.763504,300.592468 L115.586075,297.36376 C116.280699,297.760418 117.019139,298.088833 117.790706,298.340476 L118.222442,303.487429 L124.233614,303.487429 L124.646114,298.510016 C125.433711,298.295692 126.186043,298.001398 126.896697,297.64206 L130.849644,300.977397 L135.099676,296.737852 L131.863795,292.923754 C132.261334,292.230669 132.590479,291.493867 132.842681,290.722944 L138,290.295364 Z" id="Fill-1-Copy-15" fill="#1464A5" opacity="0.182710193"></path>
                        <path d="M244.15788,94.1971223 C240.928683,94.1971223 238.3125,91.585728 238.3125,88.3659483 C238.3125,85.1461686 240.928683,82.5347744 244.15788,82.5347744 C247.384904,82.5347744 250,85.1461686 250,88.3659483 C250,91.585728 247.384904,94.1971223 244.15788,94.1971223 L244.15788,94.1971223 Z M261,91.2953637 L261,85.2975162 L256.011528,84.883798 C255.796729,84.1000793 255.504987,83.3483491 255.143782,82.6382039 L258.487597,78.6950857 L254.237565,74.4523417 L250.413925,77.682116 C249.719301,77.2854583 248.98193,76.9570428 248.210363,76.7053998 L247.779696,71.558447 L241.770661,71.558447 L241.354955,76.5369269 C240.566289,76.7501837 239.815026,77.0434118 239.103303,77.4038158 L235.151425,74.0674132 L230.900324,78.3069584 L234.137273,82.1221225 C233.739734,82.8152071 233.410589,83.550943 233.157319,84.3218664 L228,84.7515788 L228,90.74836 L232.990609,91.1631444 C233.203271,91.9468632 233.495013,92.6985934 233.858355,93.4076722 L230.51454,97.3507904 L234.763504,101.592468 L238.586075,98.3637602 C239.280699,98.7604179 240.019139,99.0888333 240.790706,99.3404764 L241.222442,104.487429 L247.233614,104.487429 L247.646114,99.5100155 C248.433711,99.2956924 249.186043,99.0013981 249.896697,98.6420604 L253.849644,101.977397 L258.099676,97.7378515 L254.863795,93.9237537 C255.261334,93.2306691 255.590479,92.4938669 255.842681,91.7229435 L261,91.2953637 Z" id="Fill-1-Copy-16" fill="#1464A5" opacity="0.182710193"></path>
                        <path d="M9.96980494,181.795423 C7.8803241,181.795423 6.1875,180.105697 6.1875,178.02231 C6.1875,175.938923 7.8803241,174.249197 9.96980494,174.249197 C12.0578792,174.249197 13.75,175.938923 13.75,178.02231 C13.75,180.105697 12.0578792,181.795423 9.96980494,181.795423 L9.96980494,181.795423 Z M20.625,179.724566 L20.625,175.975911 L17.5072053,175.717337 C17.3729558,175.227513 17.1906169,174.757682 16.964864,174.313841 L19.0547482,171.849392 L16.398478,169.197677 L14.008703,171.216286 C13.5745628,170.968375 13.1137063,170.763115 12.6314767,170.605838 L12.3623097,167.388993 L8.60666289,167.388993 L8.34684666,170.500543 C7.85393054,170.633828 7.38439119,170.817096 6.93956444,171.042348 L4.46964054,168.957097 L1.8127024,171.606812 L3.83579582,173.99129 C3.58733403,174.424468 3.38161836,174.884303 3.22332416,175.36613 L0,175.6347 L0,179.382688 L3.11913051,179.641929 C3.2520442,180.131753 3.4343831,180.601584 3.66147183,181.044759 L1.5715876,183.509207 L4.22718993,186.160256 L6.61629696,184.142314 C7.05043718,184.390225 7.51196163,184.595484 7.99419122,184.752761 L8.26402607,187.969607 L12.0210087,187.969607 L12.2788212,184.858723 C12.7710695,184.724771 13.2412767,184.540837 13.6854356,184.316251 L16.1560274,186.400836 L18.8122976,183.751121 L16.7898721,181.36731 C17.0383339,180.934132 17.2440495,180.47363 17.4016758,179.991803 L20.625,179.724566 Z" id="Fill-1-Copy-3" fill="#1464A5" opacity="0.182710193"></path>
                    </g>
                    <path d="M290.000837,50.558447 C288.343067,50.558447 287,49.2149469 287,47.558447 C287,45.9019471 288.343067,44.558447 290.000837,44.558447 C291.657491,44.558447 293,45.9019471 293,47.558447 C293,49.2149469 291.657491,50.558447 290.000837,50.558447 L290.000837,50.558447 Z M299,48.7478777 L299,45.6514138 L296.430181,45.4378266 C296.319527,45.0332219 296.169236,44.6451318 295.983161,44.2785105 L297.705732,42.2428262 L295.516321,40.0524565 L293.546567,41.7198679 C293.188731,41.5150884 292.808873,41.3455398 292.411399,41.2156259 L292.18954,38.558447 L289.093977,38.558447 L288.879825,41.1286497 C288.473543,41.2387462 288.086528,41.3901289 287.719883,41.576192 L285.684067,39.8537323 L283.494106,42.0424506 L285.161626,44.0120769 C284.956833,44.3698906 284.787273,44.7497235 284.656801,45.1477223 L282,45.3695667 L282,48.4654802 L284.57092,48.6796179 C284.680473,49.0842225 284.830764,49.4723127 285.01794,49.8383835 L283.295369,51.8740677 L285.484229,54.0638871 L287.453433,52.3970261 C287.811269,52.6018056 288.191677,52.7713542 288.589152,52.9012681 L288.811561,55.558447 L291.908225,55.558447 L292.120725,52.9887948 C292.526457,52.8781478 292.914022,52.7262146 293.280117,52.540702 L295.316483,54.2626112 L297.505894,52.0738929 L295.838925,50.1048171 C296.043718,49.7470034 296.213277,49.36662 296.343199,48.9686212 L299,48.7478777 Z" id="Fill-1-Copy-23" fill="#1464A5" opacity="0.182710193"></path>
                    <path d="M80.000837,135.558447 C78.3430671,135.558447 77,134.214947 77,132.558447 C77,130.901947 78.3430671,129.558447 80.000837,129.558447 C81.6574909,129.558447 83,130.901947 83,132.558447 C83,134.214947 81.6574909,135.558447 80.000837,135.558447 L80.000837,135.558447 Z M89,133.747878 L89,130.651414 L86.4301813,130.437827 C86.3195272,130.033222 86.1692358,129.645132 85.9831606,129.27851 L87.7057319,127.242826 L85.5163212,125.052456 L83.5465674,126.719868 C83.1887306,126.515088 82.8088731,126.34554 82.411399,126.215626 L82.1895402,123.558447 L79.0939767,123.558447 L78.8798251,126.12865 C78.4735427,126.238746 78.0865285,126.390129 77.7198834,126.576192 L75.6840674,124.853732 L73.4941062,127.042451 L75.1616256,129.012077 C74.9568329,129.369891 74.7872733,129.749723 74.6568005,130.147722 L72,130.369567 L72,133.46548 L74.5709197,133.679618 C74.6804728,134.084223 74.8307642,134.472313 75.0179404,134.838384 L73.2953692,136.874068 L75.4842293,139.063887 L77.4534326,137.397026 C77.8112694,137.601806 78.1916775,137.771354 78.5891516,137.901268 L78.8115609,140.558447 L81.9082254,140.558447 L82.1207254,137.988795 C82.5264573,137.878148 82.914022,137.726215 83.2801166,137.540702 L85.3164832,139.262611 L87.5058938,137.073893 L85.8389249,135.104817 C86.0437176,134.747003 86.2132772,134.36662 86.3431995,133.968621 L89,133.747878 Z" id="Fill-1-Copy-24" fill="#1464A5" opacity="0.182710193"></path>
                    <path d="M301.000837,206.558447 C299.343067,206.558447 298,205.214947 298,203.558447 C298,201.901947 299.343067,200.558447 301.000837,200.558447 C302.657491,200.558447 304,201.901947 304,203.558447 C304,205.214947 302.657491,206.558447 301.000837,206.558447 L301.000837,206.558447 Z M310,204.747878 L310,201.651414 L307.430181,201.437827 C307.319527,201.033222 307.169236,200.645132 306.983161,200.27851 L308.705732,198.242826 L306.516321,196.052456 L304.546567,197.719868 C304.188731,197.515088 303.808873,197.34554 303.411399,197.215626 L303.18954,194.558447 L300.093977,194.558447 L299.879825,197.12865 C299.473543,197.238746 299.086528,197.390129 298.719883,197.576192 L296.684067,195.853732 L294.494106,198.042451 L296.161626,200.012077 C295.956833,200.369891 295.787273,200.749723 295.656801,201.147722 L293,201.369567 L293,204.46548 L295.57092,204.679618 C295.680473,205.084223 295.830764,205.472313 296.01794,205.838384 L294.295369,207.874068 L296.484229,210.063887 L298.453433,208.397026 C298.811269,208.601806 299.191677,208.771354 299.589152,208.901268 L299.811561,211.558447 L302.908225,211.558447 L303.120725,208.988795 C303.526457,208.878148 303.914022,208.726215 304.280117,208.540702 L306.316483,210.262611 L308.505894,208.073893 L306.838925,206.104817 C307.043718,205.747003 307.213277,205.36662 307.343199,204.968621 L310,204.747878 Z" id="Fill-1-Copy-25" fill="#1464A5" opacity="0.182710193"></path>
                </g>
                <g id="Group-13-Copy-5" transform="translate(292.000000, 97.000000)">
                    <g id="Group-12">
                        <g id="Group-3" transform="translate(0.000000, 0.000188)">
                            <mask id="mask-2" fill="white">
                                <use xlink:href="#path-1"></use>
                            </mask>
                            <g id="Clip-2"></g>
                            <path d="M46.7029086,95.6242661 C46.1881266,95.6242661 45.636961,95.2143405 45.636961,94.6045245 L45.636961,90.9403679 L36.6752021,90.9403679 C33.3036507,90.9403679 30.5605103,88.1856751 30.5605103,84.7995616 L30.5605103,68.1810411 L22.8988604,74.1375499 C22.7294432,74.2692446 22.5260679,74.3389432 22.3111245,74.3389432 C21.7963426,74.3389432 21.2451769,73.9293933 21.2451769,73.3192016 L21.2451769,67.7333542 L8.19632159,67.7333542 C3.67691279,67.7333542 -7.46331237e-05,64.0410176 -7.46331237e-05,59.5025284 L-7.46331237e-05,45.282317 C-7.46331237e-05,44.6001722 0.515453669,44.2948885 1.0263174,44.2948885 C1.53736771,44.2948885 2.05270943,44.6001722 2.05270943,45.282317 L2.05270943,59.5023405 C2.05270943,62.9008532 4.80872411,65.6660665 8.19632159,65.6660665 L22.2713824,65.6660665 C22.8372881,65.6660665 23.2977744,66.1297221 23.2977744,66.6995225 L23.2977744,71.2154677 L30.1587975,65.8815499 C30.2397744,65.8188023 30.3295208,65.7682661 30.4250512,65.7321957 L30.6228289,65.6570489 L30.6607052,65.4477652 C31.1892943,62.526998 33.7186109,60.4071076 36.6750155,60.4071076 L39.9019652,60.4071076 L39.9329379,60.0655656 C39.9517828,59.8564697 39.9609254,59.6723601 39.9609254,59.5023405 L39.9609254,50.5130959 L39.9577535,50.4886732 C39.9458122,50.3956791 39.9456256,50.3034364 39.9575669,50.2147632 L39.9609254,50.189589 L39.9609254,33.7841096 C39.9609254,30.385409 37.2049107,27.6203836 33.8171266,27.6203836 L8.19632159,27.6203836 C4.80872411,27.6203836 2.05270943,30.385409 2.05270943,33.7841096 L2.05270943,36.8269902 C2.05270943,37.5093229 1.53736771,37.8146067 1.0263174,37.8146067 C0.515453669,37.8146067 -7.46331237e-05,37.5093229 -7.46331237e-05,36.8269902 L-7.46331237e-05,33.7841096 C-7.46331237e-05,29.2456204 3.67691279,25.5534716 8.19632159,25.5534716 L33.81694,25.5534716 C34.4548667,25.5534716 35.0970847,25.6299335 35.7260553,25.7811663 L36.1857954,25.8916321 L36.1857954,10.3478982 C36.1857954,4.74551859 40.724982,0.187679061 46.3045543,0.187679061 L65.9166465,0.187679061 C66.5941287,0.187679061 66.8973258,0.706755382 66.8973258,1.22113503 C66.8973258,1.73551468 66.5941287,2.254591 65.9166465,2.254591 L46.3045543,2.254591 C41.8569799,2.254591 38.2385795,5.88530724 38.2385795,10.3478982 L38.2385795,26.8538865 L38.4029589,26.9656673 C40.6637828,28.5041096 42.0135229,31.0530881 42.0135229,33.7841096 L42.0135229,49.8176125 L42.1965606,49.9265753 C43.4343509,50.6645166 44.8548059,51.0545284 46.3045543,51.0545284 L63.3382587,51.0545284 C63.9041644,51.0545284 64.3646507,51.518184 64.3646507,52.0881722 L64.3646507,58.3127671 L73.5124327,51.2673816 C73.6906193,51.1300509 73.9120931,51.0545284 74.136179,51.0545284 L78.7944055,51.0545284 C83.2419799,51.0545284 86.8603803,47.4238121 86.8603803,42.9610333 L86.8603803,10.3478982 C86.8603803,5.88530724 83.2419799,2.254591 78.7944055,2.254591 L74.6871581,2.254591 C74.0096759,2.254591 73.7062922,1.73551468 73.7062922,1.22113503 C73.7062922,0.706755382 74.0096759,0.187679061 74.6871581,0.187679061 L78.7944055,0.187679061 C84.3737912,0.187679061 88.9133509,4.74551859 88.9133509,10.3478982 L88.9133509,42.9612211 C88.9133509,48.5637886 84.3739778,53.121816 78.794592,53.121816 L74.484156,53.121816 L63.9621916,61.2250802 C63.7933342,61.355272 63.591265,61.4240313 63.3778143,61.4240313 C62.8630323,61.4240313 62.3120532,61.0142935 62.3120532,60.4042896 L62.3120532,53.121816 L46.3047409,53.121816 C44.9977283,53.121816 43.726353,52.8753346 42.5260658,52.3895108 L42.0142692,52.1822935 L42.0137094,52.737816 C42.011657,55.5590137 42.0056864,59.8245323 41.9982231,60.0122114 L41.9825501,60.4031624 L42.3708289,60.4074834 L54.8569505,60.4074834 C58.2285019,60.4074834 60.9716423,63.162364 60.9716423,66.5484775 L60.9716423,73.4664892 C60.9716423,74.1486341 60.456114,74.4539178 59.9452503,74.4539178 C59.4342,74.4539178 58.9188583,74.1486341 58.9188583,73.4664892 L58.9188583,66.5482896 C58.9188583,64.3019648 57.0966906,62.4743953 54.8569505,62.4743953 L36.6750155,62.4743953 C34.4352755,62.4743953 32.6131078,64.3019648 32.6131078,66.5482896 L32.6131078,84.7993738 C32.6131078,87.0456986 34.4352755,88.8732681 36.6750155,88.8732681 L46.663353,88.8732681 C47.2292587,88.8732681 47.6897451,89.3369237 47.6897451,89.9067241 L47.6897451,92.5006027 L52.0787325,89.0889393 C52.2572922,88.9501057 52.4798855,88.873456 52.7058373,88.873456 L54.8569505,88.873456 C57.0966906,88.873456 58.9188583,87.0458865 58.9188583,84.7995616 L58.9188583,82.297362 C58.9188583,81.6152172 59.4342,81.3099335 59.9452503,81.3099335 C60.456114,81.3099335 60.9716423,81.6152172 60.9716423,82.297362 L60.9716423,84.7995616 C60.9716423,88.1856751 58.2285019,90.9403679 54.8569505,90.9403679 L53.0560532,90.9403679 L47.2904579,95.4226849 C47.1210407,95.5545675 46.917852,95.6242661 46.7029086,95.6242661" id="Fill-1" fill="#000000" mask="url(#mask-2)"></path>
                        </g>
                        <path d="M76.2259065,39.051917 C76.2482964,39.500919 76.0299945,39.8015061 75.8993866,39.9405276 C75.6717556,40.1809973 75.3638939,40.3125041 75.0355082,40.3125041 L61.7321539,40.3125041 C60.0603719,40.3125041 58.4259065,39.7301166 57.1254243,38.6705472 L56.3996172,38.0787663 L56.3996172,26.7579053 L62.219135,20.1262027 C63.9375627,18.164872 64.8854034,15.6455765 64.8854034,13.0285902 C64.8854034,12.7806059 65.0869128,12.5795883 65.3369338,12.5795883 C65.4955291,12.5795883 65.6447954,12.6641284 65.725026,12.8050286 C67.0217765,15.0894904 67.189701,17.8999796 66.1728247,20.3253417 L65.0682545,22.959236 C64.9339149,23.2786098 64.9674998,23.6430716 65.1578143,23.9323867 C65.3481287,24.2198231 65.6671853,24.3945393 66.0104977,24.3945393 L75.0355082,24.4227194 C75.6922797,24.4227194 76.2277723,24.9618975 76.2277723,25.623189 C76.2277723,25.8918387 76.2259065,26.6207624 76.2221748,27.6070638 C76.2016507,33.053326 76.1867241,38.2083945 76.2259065,39.051917 L76.2259065,39.051917 Z M48.8710008,39.6925432 L54.3453405,39.6925432 L54.3453405,24.7045198 L48.8710008,24.7045198 L48.8710008,39.6925432 Z M78.2801832,25.623189 C78.2801832,23.8215452 76.8267031,22.3561832 75.0392398,22.3561832 L67.559135,22.3336391 L68.0647744,21.1294121 C69.32794,18.1160266 69.1208331,14.6198231 67.5087577,11.7792751 C67.1729086,11.189373 66.6299526,10.7685511 65.9787786,10.5938348 L65.9284013,10.5806841 C65.7436843,10.5355961 65.5533698,10.5130521 65.3649212,10.5130521 C63.9916717,10.5130521 62.8311266,11.6646763 62.8311266,13.0285902 C62.8311266,15.1420932 62.0680029,17.176692 60.6798268,18.7585315 L56.5003719,23.5228368 L56.2316927,23.1095295 C56.0413782,22.8145785 55.7204558,22.6379836 55.3715459,22.6379836 L47.8447954,22.6379836 C47.2775836,22.6379836 46.8185899,23.1020149 46.8185899,23.6712517 L46.8185899,40.7258114 C46.8185899,41.2950481 47.2775836,41.7590795 47.8447954,41.7590795 L55.3715459,41.7590795 C55.772699,41.7590795 56.1384013,41.5223671 56.30446,41.1541479 L56.4798478,40.7690207 L56.8399526,40.9907037 C58.3158226,41.8999796 60.0081287,42.3790403 61.7321539,42.3790403 L75.0355082,42.3790403 C75.9012524,42.3790403 76.75207,42.0070638 77.3677933,41.3551656 C77.9872482,40.7032673 78.3174998,39.8278074 78.2764516,38.9561049 C78.2521958,38.4225628 78.2521958,34.1354395 78.2783174,26.2149699 C78.2801832,25.867416 78.2801832,25.6570051 78.2801832,25.623189 L78.2801832,25.623189 Z" id="Fill-4" fill="#000000"></path>
                        <mask id="mask-4" fill="white">
                            <use xlink:href="#path-3"></use>
                        </mask>
                        <g id="Clip-7"></g>
                        <polygon id="Fill-6" fill="#FFFFFF" mask="url(#mask-4)" points="48.8710755 39.6925245 54.3454151 39.6925245 54.3454151 24.704501 48.8710755 24.704501"></polygon>
                        <path d="M76.2259065,39.051917 C76.2482964,39.500919 76.0299945,39.8015061 75.8993866,39.9405276 C75.6717556,40.1809973 75.3638939,40.3125041 75.0355082,40.3125041 L61.7321539,40.3125041 C60.0603719,40.3125041 58.4259065,39.7301166 57.1254243,38.6705472 L56.3996172,38.0787663 L56.3996172,26.7579053 L62.219135,20.1262027 C63.9375627,18.164872 64.8854034,15.6455765 64.8854034,13.0285902 C64.8854034,12.7806059 65.0869128,12.5795883 65.3369338,12.5795883 C65.4955291,12.5795883 65.6447954,12.6641284 65.725026,12.8050286 C67.0217765,15.0894904 67.189701,17.8999796 66.1728247,20.3253417 L65.0682545,22.959236 C64.9339149,23.2786098 64.9674998,23.6430716 65.1578143,23.9323867 C65.3481287,24.2198231 65.6671853,24.3945393 66.0104977,24.3945393 L75.0355082,24.4227194 C75.6922797,24.4227194 76.2277723,24.9618975 76.2277723,25.623189 C76.2277723,25.8918387 76.2259065,26.6207624 76.2221748,27.6070638 C76.2016507,33.053326 76.1867241,38.2083945 76.2259065,39.051917" id="Fill-8" fill="#1464A5" mask="url(#mask-4)"></path>
                        <path d="M18.5965034,49.1340023 L22.7293126,49.1340023 L23.4172434,44.9447577 L19.2844342,44.9447577 L18.5965034,49.1340023 Z M22.5613881,57.5339084 C22.5054132,57.5339084 22.4488786,57.5292117 22.3930904,57.5198184 C22.1221721,57.4745425 21.8852119,57.3261276 21.7254971,57.1018145 C21.5659688,56.8773135 21.5025306,56.6037793 21.5473105,56.3315601 L22.3897319,51.2011022 L18.2569226,51.2011022 L17.3592727,56.6684055 C17.2768031,57.1698223 16.8515809,57.5339084 16.3481805,57.5339084 C16.2922057,57.5339084 16.2354845,57.5290239 16.1796962,57.5196305 C15.908778,57.4745425 15.6718178,57.3259397 15.5121029,57.1016266 C15.3525746,56.8771256 15.2891365,56.6035914 15.3339164,56.3313722 L16.1763377,51.2009143 L11.610843,51.2009143 C11.0449373,51.2009143 10.5844509,50.7372587 10.5844509,50.1674583 C10.5844509,49.5976579 11.0449373,49.1340023 11.610843,49.1340023 L16.5157319,49.1338145 L17.2036627,44.9447577 L11.610843,44.9447577 C11.0449373,44.9447577 10.5844509,44.4811022 10.5844509,43.9113018 C10.5844509,43.3415014 11.0449373,42.8778458 11.610843,42.8778458 L17.5430568,42.8778458 L18.4408933,37.4103546 C18.5231763,36.9091256 18.9480254,36.5452274 19.450866,36.5452274 C19.507214,36.5452274 19.5643084,36.5499241 19.620843,36.5593174 C20.1792853,36.6523115 20.5584216,37.18529 20.4660631,37.7473879 L19.6236417,42.8780337 L23.7564509,42.8780337 L24.6541008,37.4105425 C24.7365704,36.9091256 25.1614195,36.5452274 25.6644468,36.5452274 C25.7207948,36.5452274 25.7778891,36.5501119 25.8340505,36.5595053 C26.3926795,36.6524994 26.7718157,37.1854779 26.6794572,37.7477636 L25.8370358,42.8782215 L30.4025306,42.8782215 C30.9684363,42.8782215 31.4289226,43.3416892 31.4289226,43.9116775 C31.4289226,44.4814779 30.9684363,44.9451335 30.4025306,44.9451335 L25.4976417,44.9451335 L24.8097109,49.1343781 L30.4025306,49.1343781 C30.9684363,49.1343781 31.4289226,49.5980337 31.4289226,50.1678341 C31.4289226,50.7376344 30.9684363,51.20129 30.4025306,51.20129 L24.4703168,51.20129 L23.5724803,56.6685933 C23.4901973,57.1698223 23.0649751,57.5339084 22.5613881,57.5339084 L22.5613881,57.5339084 Z" id="Fill-9" fill="#000000" mask="url(#mask-4)"></path>
                        <path d="M45.9453824,80.6024454 L45.7662629,80.7038935 L45.5852776,80.6024454 C41.6241245,78.406281 40.1501203,76.7455374 40.1501203,74.4742262 C40.1501203,72.6894904 41.1987157,71.7971225 42.1801413,71.5585315 C42.3704558,71.5115648 42.5645019,71.4869542 42.7604138,71.4869542 C43.6560113,71.4869542 44.419135,71.9755961 44.853873,72.8247546 C45.0311266,73.1704297 45.3800365,73.384598 45.7643971,73.384598 L45.786787,73.384598 C46.1804767,73.3770834 46.5293866,73.1478857 46.6954453,72.7890599 C47.0648792,71.9906254 47.7906864,71.5322301 48.6825522,71.5322301 C48.8765983,71.5322301 49.0706444,71.5547742 49.2609589,71.5961049 C50.2852985,71.8253025 51.3824055,72.7007624 51.3824055,74.4742262 C51.3824055,76.7455374 49.9084013,78.406281 45.9453824,80.6024454 M49.705026,69.5784141 C49.3617136,69.5013886 49.0146696,69.4638153 48.6732231,69.4638153 C47.6675417,69.4638153 46.7364935,69.7907037 45.9864306,70.4125432 L45.7494704,70.6079249 L45.5125103,70.4106646 C44.7400574,69.771917 43.7642294,69.4187272 42.7660113,69.4187272 C42.4096382,69.4187272 42.0495333,69.4619366 41.695026,69.5502341 C39.903831,69.987964 38.0977094,71.6787663 38.0977094,74.4742262 C38.0977094,76.2401753 38.7395543,77.7750481 40.0624264,79.1671421 C41.1688625,80.3337957 42.7809379,81.4516039 45.2848792,82.7892164 C45.4322797,82.8681205 45.5983384,82.9094513 45.7662629,82.9094513 C45.9323216,82.9094513 46.0983803,82.8681205 46.2476465,82.7892164 C50.5614411,80.4859679 53.4348164,78.1902341 53.4348164,74.4742262 C53.4348164,71.6674943 51.5615249,69.9936 49.705026,69.5784141" id="Fill-10" fill="#000000" mask="url(#mask-4)"></path>
                        <path d="M51.3824241,74.4741886 C51.3824241,76.7454998 49.9084199,78.4062434 45.945401,80.6024078 L45.7662816,80.703856 L45.5852962,80.6024078 C41.6241432,78.4062434 40.150139,76.7454998 40.150139,74.4741886 C40.150139,72.6894528 41.1987344,71.7970849 42.18016,71.5584939 C42.3704744,71.5115272 42.5645205,71.4871045 42.7604325,71.4871045 C43.65603,71.4871045 44.4191537,71.9755585 44.8538916,72.824717 C45.0311453,73.17058 45.3800551,73.3845605 45.7644157,73.3845605 L45.7868057,73.3845605 C46.1804954,73.3770458 46.5294052,73.1478481 46.6954639,72.7890223 C47.0648979,71.9905879 47.790705,71.5321926 48.6825709,71.5321926 C48.876617,71.5321926 49.0706631,71.5547366 49.2609776,71.5960673 C50.2853172,71.825265 51.3824241,72.7009127 51.3824241,74.4741886" id="Fill-11" fill="#F42424" mask="url(#mask-4)"></path>
                    </g>
                </g>
                <g id="Group-68" transform="translate(104.000000, 79.000000)">
                    <rect id="Rectangle" fill="#1464A5" transform="translate(86.500000, 138.000000) scale(1, -1) translate(-86.500000, -138.000000) " x="0" y="126" width="173" height="24" rx="10"></rect>
                    <g id="servicios-de-Internet-con-alta-velocidad-de-internet-10-mbps-o-mas" transform="translate(1.000000, 0.000000)">
                        <g id="Group-11-Copy" transform="translate(0.000000, 39.748092)" fill="#000000">
                            <path d="M75.7350914,94.2217904 C72.9966205,94.2217904 70.5359036,92.3891747 69.6127796,89.6616222 L69.274289,88.6619105 L30.4135745,88.6619105 C29.2382696,88.6619105 28.3179871,87.6814894 28.3179871,86.429864 C28.3179871,85.1786167 29.2382696,84.1981957 30.4135745,84.1981957 L71.2952877,84.1981957 C72.4688166,84.1981957 73.4050824,85.1907207 73.4263935,86.4578544 L73.4263935,87.2620114 C73.4263935,88.6150076 74.4997604,89.7580757 75.7706099,89.7580757 L98.2182578,89.7580757 C99.488752,89.7580757 100.562474,88.6150076 100.562474,87.2620114 L100.562474,86.429864 C100.562474,85.1786167 101.483112,84.1981957 102.658062,84.1981957 L143.539775,84.1981957 C144.714724,84.1981957 145.635362,85.1786167 145.635362,86.429864 C145.635362,87.6814894 144.714724,88.6619105 143.539775,88.6619105 L104.643542,88.6619105 L104.305051,89.6616222 C103.381572,92.3891747 100.92121,94.2217904 98.1827393,94.2217904 L75.7350914,94.2217904 Z" id="Fill-1"></path>
                            <g id="Group-5">
                                <path d="M14.66579,110.259542 C6.57899875,110.259542 7.11928099e-05,103.665022 7.11928099e-05,95.5586265 L7.11928099e-05,87.1731921 C7.11928099e-05,85.9924516 0.922374045,85.067556 2.10025908,85.067556 L12.7435842,85.067556 L12.7435842,2.24801008 C12.7435842,1.06762637 13.665887,0.142730799 14.8437721,0.142730799 C16.0213011,0.142730799 16.9439599,1.06762637 16.9439599,2.24801008 L16.9439599,87.1731921 C16.9439599,88.3535758 16.0213011,89.2784714 14.8437721,89.2784714 L4.20044698,89.2784714 L4.20044698,95.5586265 C4.20044698,101.343149 8.89525682,106.04934 14.66579,106.04934 L156.980217,106.04934 C162.75075,106.04934 167.44556,101.343149 167.44556,95.5586265 L167.44556,89.2784714 L156.802235,89.2784714 C155.62435,89.2784714 154.666451,88.3343072 154.666451,87.1731921 L154.666451,2.24801008 C154.666451,1.06762637 155.589109,0.142730799 156.766639,0.142730799 C157.944168,0.142730799 158.866826,1.06762637 158.866826,2.24801008 L158.866826,85.067556 L169.545748,85.067556 C170.723277,85.067556 171.645936,85.9924516 171.645936,87.1731921 L171.645936,95.5586265 C171.645936,103.665022 165.067008,110.259542 156.980217,110.259542 L14.66579,110.259542 Z" id="Fill-3"></path>
                            </g>
                        </g>
                        <g id="Group-Copy-2" transform="translate(89.971098, 37.351145)">
                            <path d="M83.6558423,107.842232 L83.6470548,102.346595 C87.5770031,99.3902547 90.1206683,94.6825091 90.1121679,89.3530963 L90.0670497,61.1499154 L89.7575427,54.9185754 C89.7522064,51.5812992 87.0621337,48.8675455 83.748113,48.8622464 C80.4353616,48.8569493 77.7502658,50.0494691 77.7556001,53.3854667 L77.7531834,51.8741025 C77.7478491,48.5381049 75.0590519,45.8281893 71.7437619,45.8228881 C68.4348182,45.8175971 65.752135,48.5189238 65.7574693,51.8549214 L65.752638,48.8334717 C65.7473078,45.5000314 63.0534274,42.7862716 59.7419452,42.7809766 C56.4291938,42.7756795 53.7515937,45.4808502 53.7569239,48.8142905 L53.7618819,51.9150165 C53.759547,50.4547983 53.6521152,17.4003324 53.6521152,17.4003324 C53.646603,13.9530922 50.8573712,11.1407242 47.4316562,11.1352385 C44.0034027,11.1297647 41.230766,13.9332393 41.2362782,17.3804795 L41.2996832,78.4653665 L41.1718038,75.4871941 L41.1518305,62.9960631 C41.1436768,57.8968073 37.0411941,53.7614975 31.9705266,53.7533895 L28.9205107,53.7485125 C28.7872391,53.7482994 29.0461831,53.7589426 28.9205434,53.7689709 L28.9390201,65.3241301 C28.9555224,65.3254351 28.9161797,65.3279295 28.9390344,65.3330806 L28.9635528,80.6666503 L46.3665468,101.495501 C46.3665468,101.495501 50.8744562,104.378386 53.6488606,105.061783 L53.6532298,107.794258" id="Fill-12-Copy-6" fill="#FFFFFF" transform="translate(59.496694, 59.488735) rotate(-45.000000) translate(-59.496694, -59.488735) "></path>
                            <path d="M85.4483928,109.205128 L80.3713791,109.19701 L80.3605429,102.420165 L81.3785288,101.655884 C84.8482902,99.0440424 86.8346329,95.0540051 86.8276834,90.7078741 L86.7825865,62.5046932 L86.4758143,56.3961076 C86.4700025,54.3489851 84.915203,52.7814355 83.0062459,52.7783831 C79.5576843,52.7728688 79.5471099,54.0975298 79.5481404,54.7419694 L79.5481506,54.7483626 L74.4711369,54.7402445 L74.4687202,53.2288803 C74.4656473,51.3070695 72.9108519,49.7420772 71.0018947,49.7390248 C69.0954761,49.7359764 67.5469469,51.2960065 67.5500198,53.2178173 L62.4730061,53.2096991 L62.4681748,50.1882494 C62.4651019,48.2664386 60.9090352,46.7001656 59.000078,46.6971132 C57.0936594,46.6940648 55.5464014,48.2553756 55.5494744,50.1771864 L55.5544263,53.2740765 L55.5544325,53.2779124 L50.4774188,53.2697943 C50.4750839,51.8095761 50.3676582,18.7589461 50.3676582,18.7589461 C50.364391,16.7156635 48.7142482,15.0546203 46.689789,15.0513832 C44.6678683,15.0481501 43.0255676,16.7039288 43.0288287,18.7433754 L43.0922358,79.8295411 L38.0179282,79.9262763 L37.8900489,76.9481038 L37.8673673,64.3508409 C37.8614872,60.6734438 34.8841093,57.6753712 31.2286595,57.6695261 L30.7171503,57.6687082 L30.7313212,66.5310307 L30.9161775,68.6283068 L30.7347479,68.6740479 L30.7546128,81.0974104 L47.3004924,100.900695 C48.6815325,101.754482 51.7203673,103.4983 53.4992886,103.937163 L55.4381971,104.414641 L55.4457804,109.157154 L50.3687667,109.149036 L50.3673334,108.252702 C47.6176189,107.134604 44.6648971,105.268173 44.2659426,105.011806 L43.9330588,104.799018 L25.6805821,82.9548425 L25.6396787,57.3741725 L25.4936859,57.356038 L25.6348678,54.3655093 L25.6323039,52.7620823 L25.7300242,52.7545666 L25.739847,52.5474416 L31.2204812,52.5549265 C33.73868,52.5589531 36.0753944,53.3682369 37.9903449,54.7381721 L37.951813,18.7339786 C37.9440457,13.8763876 41.859717,9.92907334 46.6816108,9.93677228 C51.506043,9.94449782 55.4368964,13.9043587 55.4446657,18.7632283 C55.4446657,18.7632283 55.4877334,32.2031519 55.5204123,42.321135 C56.5807435,41.8446166 57.7569162,41.5805388 58.9918998,41.5825136 C62.1713796,41.5875976 64.9538579,43.3514645 66.4265448,45.9558653 C67.7477534,45.1115138 69.3144942,44.6217401 70.9937165,44.6244251 C74.0183474,44.6292615 76.6825173,46.2254366 78.2031046,48.6227732 C79.4383924,48.0212272 81.0180323,47.6606174 82.9980676,47.6637834 C87.7057286,47.671311 91.5425079,51.5376802 91.5500933,56.2814713 L91.8568634,62.3887782 L91.9047221,90.7159922 C91.913546,96.249989 89.5748767,101.362115 85.441566,104.935716 L85.4483928,109.205128 Z" id="Fill-13-Copy-2" fill="#000000" transform="translate(58.699204, 59.570950) rotate(-45.000000) translate(-58.699204, -59.570950) "></path>
                        </g>
                        <path d="M70.769857,69.7099237 L67.040807,70.8741319 L61.0081359,74.7862245 L57.4164186,78.2509094 L55.3063584,80.5732936 L55.3063584,84.1032191 L57.4164186,86.4885496 L59.4390916,86.4885496 C61.4025244,86.4885496 62.3842408,86.4885496 62.3842408,86.4885496 C62.3842408,86.4885496 63.1003587,85.6934395 64.5325944,84.1032191 L67.040807,80.5732936 L69.128775,77.3274839 L72.1387283,72.95382 L72.1387283,69.7099237 L70.769857,69.7099237 Z" id="Path-21" fill="#9ABD62"></path>
                        <g id="Group-8-Copy" transform="translate(32.462428, 50.534351)">
                            <path d="M38.395331,20.3283906 C38.2124033,20.3283906 38.0284375,20.3867898 37.869039,20.5061974 C32.9761261,24.1701868 26.9556587,28.7378725 26.0610891,29.6902761 C24.7983572,31.050977 24.7987032,33.257969 26.0576289,34.6140725 C26.6667344,35.2703799 27.4777985,35.6319578 28.3411113,35.6319578 C29.2045394,35.6319578 30.0156035,35.2703799 30.6248243,34.6139482 C31.5130503,33.6456401 35.7525675,27.1603491 39.1533392,21.889761 C39.4082385,21.4947589 39.363833,20.959723 39.04815,20.6195167 C38.8696052,20.4271722 38.6332755,20.3283906 38.395331,20.3283906 M24.10021,36.7226556 C21.7618262,34.2035387 21.7618262,30.1044133 24.10021,27.5851721 C25.4982345,26.0792187 37.0905004,17.3972488 46.5925922,10.4199136 C46.8233856,10.250556 47.0927023,10.1609691 47.3713614,10.1609691 C47.7414844,10.1609691 48.089347,10.3160376 48.3508206,10.5977204 C48.8204812,11.1038053 48.8899153,11.9006434 48.5158707,12.4922147 C42.037392,22.7305849 33.976923,35.2201814 32.5822432,36.7227799 C31.4514593,37.9408377 29.9452467,38.6116827 28.3412266,38.6116827 C26.7370912,38.6116827 25.230994,37.9408377 24.10021,36.7226556 Z" id="Fill-1" fill="#000000"></path>
                            <path d="M6.21529645,46.740458 C5.73467808,46.740458 5.28847496,46.5022138 5.02163737,46.1029485 C1.73653557,41.1874428 0,35.496717 0,29.6460459 C0,21.7274436 3.08255378,14.2826998 8.6799294,8.68306385 C14.277305,3.08366693 21.7194808,0 29.6353441,0 C33.8791732,0 37.977574,0.878981352 41.8165461,2.61255779 C42.1657173,2.77011218 42.4326744,3.05437951 42.5679454,3.41276195 C42.7033359,3.77114439 42.6912667,4.16096599 42.5335302,4.51014381 C42.3019443,5.02333121 41.7882252,5.35493658 41.2250341,5.35493658 C41.0221276,5.35493658 40.82424,5.31202154 40.6368682,5.22738686 C37.9304921,4.00532425 35.0623165,3.24946962 32.1120463,2.9808621 C32.083128,2.97823221 32.0542096,2.97691726 32.0254107,2.97691726 C31.78785,2.97691726 31.5576981,3.06549678 31.3807225,3.226996 C31.1823569,3.40821941 31.0694319,3.66451426 31.0694319,3.93324132 L31.0694319,7.53093244 C31.0694319,8.32193198 30.4261776,8.96541853 29.6354636,8.96541853 C28.8447496,8.96541853 28.2014954,8.32193198 28.2014954,7.53093244 L28.2014954,3.93503443 C28.2014954,3.66606829 28.0883314,3.4096539 27.8896073,3.22843049 C27.7128707,3.0670508 27.4828383,2.97871037 27.2455165,2.97871037 C27.2163592,2.97871037 27.1870823,2.98002531 27.157686,2.98277475 C22.9857943,3.36769518 18.9062741,4.75783174 15.3599511,7.00292202 C11.8994272,9.19362136 8.93923866,12.1970766 6.79916053,15.6886158 C6.65767566,15.9194485 6.62063148,16.1994123 6.69710979,16.4590543 C6.77370759,16.7186963 6.95665804,16.9337497 7.20067164,17.0507798 L10.5384718,18.6523836 C11.251393,18.9945085 11.5532433,19.8530484 11.2113614,20.5663466 C10.9740396,21.0611248 10.4658174,21.3808957 9.91672703,21.3808957 C9.70222928,21.3808957 9.49406489,21.333199 9.29820872,21.2392401 L5.91750904,19.6170755 C5.78701793,19.5544362 5.64565256,19.5229971 5.50404819,19.5229971 C5.38383385,19.5229971 5.26361951,19.5455902 5.14961903,19.5911352 C4.90130353,19.6902343 4.70592535,19.8889106 4.61068596,20.1388698 C3.45431005,23.1753182 2.86793653,26.3739831 2.86793653,29.6460459 C2.86793653,34.1822495 4.04809241,38.687014 6.28101999,42.6734509 C6.45548613,42.9849734 6.77992145,43.1623715 7.11558952,43.1623715 C7.25647691,43.1623715 7.39939574,43.131291 7.53406926,43.0655437 L10.484459,41.6257979 C10.6825856,41.5290896 10.8936179,41.480078 11.1114616,41.480078 C11.6650928,41.480078 12.1596924,41.7889706 12.4021525,42.2861396 C12.7486949,42.997047 12.4525804,43.8574996 11.7420491,44.2041671 L6.84265756,46.5949772 C6.64488944,46.6915659 6.43373761,46.740458 6.21529645,46.740458" id="Fill-3" fill="#000000"></path>
                            <g id="Group-7" transform="translate(46.724337, 16.257551)">
                                <mask id="mask-6" fill="white">
                                    <use xlink:href="#path-5"></use>
                                </mask>
                                <g id="Clip-6"></g>
                                <path d="M6.26413311,30.4829074 C6.06022438,30.4829074 5.86303667,30.4355565 5.67769617,30.3423005 L0.89324554,27.9325845 C0.563460193,27.7664346 0.314554845,27.4746179 0.192551355,27.1107508 C0.0704339481,26.7466427 0.0896856661,26.3542205 0.246661213,26.0056551 C0.472213885,25.5046751 0.957266046,25.1808093 1.48241646,25.1808093 C1.6856417,25.1808093 1.8827155,25.2282807 2.06851166,25.3217777 L5.00491127,26.8006204 C5.13112964,26.8642369 5.26463859,26.8944788 5.39621099,26.8944788 C5.71608569,26.8944788 6.0250245,26.7156779 6.19145503,26.4022943 C8.32645916,22.3792735 9.45501993,17.8325008 9.45501993,13.253197 C9.45501993,9.38680771 8.6988489,5.65488054 7.20735338,2.16091282 C6.89738933,1.43438345 7.20393591,0.576404067 7.89084633,0.24844172 C8.06980756,0.163017287 8.25856553,0.119642399 8.45210795,0.119642399 C8.98899166,0.119642399 9.47848652,0.453990494 9.69914083,0.97135652 C11.3512572,4.84184236 12.1889917,8.97390287 12.1889917,13.253197 C12.1889917,19.1501335 10.5335718,24.8859805 7.40169321,29.8404771 C7.14743383,30.2427792 6.7221873,30.4829074 6.26413311,30.4829074" id="Fill-5" fill="#000000" mask="url(#mask-6)"></path>
                            </g>
                        </g>
                        <g id="Group-13-Copy-2" transform="translate(114.447977, 27.000000) rotate(-360.000000) translate(-114.447977, -27.000000) translate(76.947977, 0.000000)">
                            <g id="Group-9-Copy" transform="translate(0.116683, 0.149860)">
                                <g id="Group-3" transform="translate(28.128453, 41.919293)">
                                    <mask id="mask-8" fill="white">
                                        <use xlink:href="#path-7"></use>
                                    </mask>
                                    <g id="Clip-2"></g>
                                    <path d="M1.69518604,8.48702944 L2.01419579,8.77227791 C3.31869416,9.93694383 5.21091174,10.3050445 6.99855766,9.90498653 C7.88543123,9.70673293 8.82723803,9.70673293 9.7141116,9.90498653 C11.5017575,10.3050445 13.3939751,9.93694383 14.6978116,8.77227791 L15.0188069,8.48643764 C17.733699,6.06182572 16.5840726,1.86595104 12.8896485,0.937414033 C9.94509584,0.197069995 6.76955896,0.197069995 3.82368262,0.938005834 C0.129920361,1.86713464 -1.02102975,6.06241752 1.69518604,8.48702944" id="Fill-1" fill="#9ABD62" mask="url(#mask-8)"></path>
                                </g>
                                <path d="M58.0952958,35.4586522 C60.2489805,33.3628029 60.0152231,29.8569855 57.5405116,28.1280311 C51.6548122,24.0163823 44.6190266,21.7980325 37.228553,21.7980325 C29.8387028,21.7980325 22.8029171,24.0163823 16.9165944,28.1280311 C14.4425062,29.8569855 14.2087489,33.3628029 16.3624336,35.4586522 C18.072291,37.1215049 20.7770198,37.3749959 22.7424519,36.0056592 C26.943228,33.0795964 31.9624666,31.5010386 37.228553,31.5010386 C42.4952628,31.5010386 47.513878,33.0795964 51.7152775,36.0056592 C53.6807096,37.3749959 56.3854384,37.1215049 58.0952958,35.4586522" id="Fill-4" fill="#9ABD62"></path>
                                <g id="Group-8">
                                    <mask id="mask-10" fill="white">
                                        <use xlink:href="#path-9"></use>
                                    </mask>
                                    <g id="Clip-7"></g>
                                    <path d="M72.5103492,20.0087877 C74.6191419,17.9280098 74.4531896,14.5001135 72.1487878,12.6323335 C62.2541207,4.61501717 49.9641882,0.256033462 36.9953028,0.256033462 C24.0264173,0.256033462 11.7364848,4.61501717 1.84181773,12.6323335 C-0.463215045,14.5001135 -0.628536312,17.9280098 1.48025633,20.0087877 C3.31708918,21.8217612 6.2430232,21.956909 8.25148729,20.3313986 C16.3427644,13.7814012 26.3926568,10.2208483 36.9953028,10.2208483 C47.5979487,10.2208483 57.6472102,13.7814012 65.7391183,20.3313986 C67.7469514,21.956909 70.6735164,21.8217612 72.5103492,20.0087877" id="Fill-6" fill="#9ABD62" mask="url(#mask-10)"></path>
                                </g>
                            </g>
                        </g>
                    </g>
                </g>
                <g id="tarjetas-clasicas" transform="translate(56.502491, 62.000000)">
                    <g id="Group-46">
                        <path d="M12.1863731,30.8471901 C12.1863731,31.7556598 11.4473901,32.4937913 10.5378725,32.4937913 L9.120627,32.4937913 C8.68007941,32.4937913 8.26795425,32.3234533 7.95530757,32.0111668 C7.6426609,31.6988804 7.47212635,31.2872301 7.47212635,30.8471901 C7.47212635,29.9387205 8.2111094,29.1967176 9.120627,29.1967176 L10.5378725,29.1967176 C11.4473901,29.1967176 12.1863731,29.9387205 12.1863731,30.8471901" id="Fill-1" fill="#606060"></path>
                        <path d="M26.5017151,54.4222356 C26.5017151,55.3307052 25.762732,56.0727081 24.8532144,56.0727081 L14.0772395,56.0727081 C13.636692,56.0727081 13.2245668,55.8984987 12.9106282,55.5900836 C12.5992734,55.2777972 12.427447,54.8622755 12.427447,54.4222356 C12.427447,53.5137659 13.1677219,52.7756343 14.0772395,52.7756343 L24.8532144,52.7756343 C25.762732,52.7756343 26.5017151,53.5137659 26.5017151,54.4222356" id="Fill-3" fill="#606060"></path>
                        <path d="M35.9312421,53.2578717 C36.2438888,53.5701581 36.4144234,53.9818084 36.4144234,54.4218484 C36.4144234,55.3303181 35.6754403,56.072321 34.7659227,56.072321 L33.3473853,56.072321 C32.9081297,56.072321 32.4947126,55.8981116 32.1833578,55.5896965 C31.8694192,55.27741 31.7001766,54.8618884 31.7001766,54.4218484 C31.7001766,53.5133788 32.4417435,52.7752472 33.3512611,52.7752472 L34.7659227,52.7752472 C35.2064703,52.7752472 35.6224713,52.9455852 35.9312421,53.2578717" id="Fill-5" fill="#606060"></path>
                        <path d="M14.0769812,43.3426481 L40.3470535,43.3465194 C41.257863,43.3465194 41.9955541,44.084651 41.9955541,44.9931207 C41.9955541,45.9015903 41.257863,46.6397219 40.3470535,46.6397219 L14.0769812,46.6397219 C13.6364336,46.6397219 13.2243084,46.4693839 12.9116617,46.1570974 C12.5990151,45.8473919 12.4284805,45.4331607 12.4284805,44.9931207 C12.4284805,44.084651 13.1674636,43.3426481 14.0769812,43.3426481" id="Fill-7" fill="#606060"></path>
                        <path d="M69.6879104,54.4222356 L69.6840346,44.9929916 C69.6840346,44.5594039 69.8623207,44.1335587 70.1672158,43.8290149 C70.4798625,43.5167285 70.8958635,43.3463904 71.336411,43.3463904 L85.4985303,43.3463904 C85.9390779,43.3463904 86.3550788,43.5167285 86.6638497,43.8290149 C86.9764964,44.13743 87.1470309,44.5529517 87.1470309,44.9929916 L87.1470309,54.4222356 C87.1470309,55.3307052 86.4080479,56.0727081 85.4985303,56.0727081 L71.336411,56.0727081 C70.8958635,56.0727081 70.4798625,55.8984987 70.1710916,55.5900836 C69.8584449,55.2777972 69.6879104,54.8622755 69.6879104,54.4222356" id="Fill-9" fill="#606060"></path>
                        <path d="M92.1075193,16.7015176 C92.1075193,17.1415576 91.9331089,17.5532079 91.624338,17.8654944 C91.3116914,18.1777808 90.8956904,18.3481189 90.4551428,18.3481189 L89.0378974,18.3481189 C88.5973498,18.3481189 88.1852246,18.1777808 87.8725779,17.8654944 C87.5586393,17.5532079 87.3893967,17.1415576 87.3893967,16.7015176 C87.3893967,15.793048 88.1270878,15.0549164 89.0378974,15.0510451 L90.4551428,15.0510451 C91.3646604,15.0510451 92.1036435,15.793048 92.1075193,16.7015176" id="Fill-11" fill="#606060"></path>
                        <path d="M96.2785101,29.1969756 L18.3261337,29.1969756 C17.4166161,29.1969756 16.677633,29.9389786 16.677633,30.8474482 C16.677633,31.2874882 16.8481676,31.6978481 17.1608143,32.0114249 C17.4734609,32.3237114 17.8855861,32.4940494 18.3261337,32.4940494 L96.2785101,32.4940494 L96.2785101,61.1301999 C96.2785101,64.5859978 93.4608143,67.3965758 90.0036138,67.3965758 L9.57590257,67.3965758 C7.91319071,67.3965758 6.34220576,66.7474846 5.13812848,65.5473755 C3.95084627,64.3627517 3.30100628,62.7935769 3.30100628,61.1301999 L3.30100628,18.3482479 L81.2495069,18.3482479 C82.1590245,18.3482479 82.8980076,17.6101163 82.8980076,16.7016467 C82.8980076,15.793177 82.1590245,15.0511741 81.2495069,15.0511741 L3.30100628,15.0511741 L3.30100628,10.4481752 C3.30100628,8.78350782 3.95472206,7.21175209 5.14458812,6.023257 C6.33445419,4.83347146 7.90931492,4.18050891 9.57590257,4.18050891 L90.0036138,4.18050891 C91.6702015,4.18050891 93.2437703,4.83734278 94.4310525,6.023257 C95.6209186,7.21175209 96.2785101,8.78350782 96.2785101,10.4481752 L96.2785101,29.1969756 Z M89.4894263,3.69401309 L10.0900901,3.69401309 C6.07219272,3.69401309 2.81007349,6.94850236 2.81007349,10.966932 L2.81007349,60.6191858 C2.81007349,64.6324537 6.07219272,67.8895238 10.0900901,67.8895238 L89.4894263,67.8895238 C93.5099076,67.8895238 96.768151,64.6324537 96.768151,60.6191858 L96.768151,10.966932 C96.768151,6.94850236 93.5099076,3.69401309 89.4894263,3.69401309 L89.4894263,3.69401309 Z" id="Fill-13" fill="#606060"></path>
                        <path d="M96.2785101,29.1969756 L18.3261337,29.1969756 C17.4166161,29.1969756 16.677633,29.9389786 16.677633,30.8474482 C16.677633,31.2874882 16.8481676,31.6978481 17.1608143,32.0114249 C17.4734609,32.3237114 17.8855861,32.4940494 18.3261337,32.4940494 L96.2785101,32.4940494 L96.2785101,61.1301999 C96.2785101,64.5859978 93.4608143,67.3965758 90.0036138,67.3965758 L9.57590257,67.3965758 C7.91319071,67.3965758 6.34220576,66.7474846 5.13812848,65.5473755 C3.95084627,64.3627517 3.30100628,62.7935769 3.30100628,61.1301999 L3.30100628,18.3482479 L81.2495069,18.3482479 C82.1590245,18.3482479 82.8980076,17.6101163 82.8980076,16.7016467 C82.8980076,15.793177 82.1590245,15.0511741 81.2495069,15.0511741 L3.30100628,15.0511741 L3.30100628,10.4481752 C3.30100628,8.78350782 3.95472206,7.21175209 5.14458812,6.023257 C6.33445419,4.83347146 7.90931492,4.18050891 9.57590257,4.18050891 L90.0036138,4.18050891 C91.6702015,4.18050891 93.2437703,4.83734278 94.4310525,6.023257 C95.6209186,7.21175209 96.2785101,8.78350782 96.2785101,10.4481752 L96.2785101,29.1969756 Z M99.5755114,10.4481752 C99.5755114,7.90342784 98.5768508,5.50450018 96.7642752,3.69401309 C94.9529916,1.88094511 92.5512967,0.884725554 90.0036138,0.884725554 L9.57590257,0.884725554 C7.02821975,0.884725554 4.62264905,1.88094511 2.81007349,3.69401309 C0.998789854,5.50450018 0.000129192841,7.90342784 0.000129192841,10.4481752 L0.000129192841,16.5313086 L0.0182161906,16.5661505 L0.000129192841,16.7364885 L0.000129192841,58.7015921 L0.00271304966,61.4450672 C0.0104646201,66.5448855 4.16789025,70.6936496 9.27359132,70.6936496 L90.0036138,70.6936496 C92.5551725,70.6936496 94.9594512,69.7000109 96.768151,67.8895238 C98.5807266,66.0803272 99.5793872,63.6813995 99.5793872,61.1301999 L99.5755114,10.4481752 Z" id="Fill-32" fill="#000000"></path>
                        <path d="M40.3476994,43.3463904 C41.257217,43.3463904 41.9962001,44.084522 41.9962001,44.9929916 C41.9962001,45.9014613 41.257217,46.6395929 40.3476994,46.6395929 L14.0776271,46.6395929 C13.6357876,46.6395929 13.2236624,46.4692548 12.9110158,46.1569684 C12.5983691,45.8472628 12.4278345,45.4330316 12.4278345,44.9929916 C12.4278345,44.084522 13.1668176,43.3425191 14.0776271,43.3425191 L40.3476994,43.3463904 Z M70.167991,43.8290149 C70.4806377,43.5167285 70.8966386,43.3463904 71.3358943,43.3463904 L85.4993054,43.3463904 C85.939853,43.3463904 86.354562,43.5167285 86.6646249,43.8290149 C86.9772715,44.13743 87.1478061,44.5529517 87.1478061,44.9929916 L87.1478061,54.4222356 C87.1478061,55.3307052 86.4075311,56.0727081 85.4993054,56.0727081 L71.3358943,56.0727081 C70.8966386,56.0727081 70.4806377,55.8984987 70.1705748,55.5900836 C69.8579282,55.2777972 69.6873936,54.8622755 69.6873936,54.4222356 L69.6848098,44.9929916 C69.6848098,44.5594039 69.861804,44.1335587 70.167991,43.8290149 L70.167991,43.8290149 Z M34.7652768,56.0727081 L33.3480313,56.0727081 C32.9074837,56.0727081 32.4953585,55.8984987 32.1827119,55.5900836 C31.8700652,55.2777972 31.6995306,54.8622755 31.6995306,54.4222356 C31.6995306,53.5137659 32.4423895,52.7756343 33.3519071,52.7756343 L34.7652768,52.7756343 C35.2071163,52.7756343 35.6218253,52.9459724 35.9318881,53.2582588 C36.2432429,53.5705453 36.4150693,53.9821956 36.4150693,54.4222356 C36.4150693,55.3307052 35.6747944,56.0727081 34.7652768,56.0727081 L34.7652768,56.0727081 Z M24.8523101,56.0727081 L14.0776271,56.0727081 C13.6357876,56.0727081 13.2236624,55.8984987 12.9110158,55.5900836 C12.5983691,55.2777972 12.4278345,54.8622755 12.4278345,54.4222356 C12.4278345,53.5137659 13.1668176,52.7756343 14.0776271,52.7756343 L24.8523101,52.7756343 C25.7618277,52.7756343 26.5021026,53.5137659 26.5021026,54.4222356 C26.5021026,55.3307052 25.7618277,56.0727081 24.8523101,56.0727081 L24.8523101,56.0727081 Z M10.5377433,32.4937913 L9.12049781,32.4937913 C8.67995022,32.4937913 8.26782506,32.3234533 7.95517838,32.0111668 C7.64253171,31.6988804 7.47199716,31.2872301 7.47199716,30.8471901 C7.47199716,29.9387205 8.21098021,29.1967176 9.12049781,29.1967176 L10.5377433,29.1967176 C11.4472609,29.1967176 12.1862439,29.9387205 12.1862439,30.8471901 C12.1862439,31.7556598 11.4472609,32.4937913 10.5377433,32.4937913 L10.5377433,32.4937913 Z M89.0378974,15.050916 L90.4551428,15.050916 C91.3646604,15.050916 92.1036435,15.7929189 92.1075193,16.7013886 C92.1075193,17.1414286 91.9331089,17.5530789 91.624338,17.8653653 C91.3116914,18.1776518 90.8956904,18.3479898 90.4551428,18.3479898 L89.0378974,18.3479898 C88.5973498,18.3479898 88.1852246,18.1776518 87.8725779,17.8653653 C87.5586393,17.5530789 87.3893967,17.1414286 87.3893967,16.7013886 C87.3893967,15.7929189 88.1270878,15.0547874 89.0378974,15.050916 L89.0378974,15.050916 Z M18.3267797,29.1967176 L96.2778642,29.1967176 L96.2778642,10.4479171 C96.2778642,8.78324973 95.6215645,7.211494 94.4304065,6.02299891 C93.2444163,4.8370847 91.6708475,4.18025082 90.0042598,4.18025082 L9.57525661,4.18025082 C7.90866896,4.18025082 6.33510015,4.83321338 5.14394216,6.02299891 C3.95407609,7.211494 3.30036032,8.78324973 3.30036032,10.4479171 L3.30036032,15.050916 L81.248861,15.050916 C82.1583786,15.050916 82.8986535,15.7929189 82.8986535,16.7013886 C82.8986535,17.6098582 82.1583786,18.3479898 81.248861,18.3479898 L3.30036032,18.3479898 L3.30036032,61.1299418 C3.30036032,62.7933188 3.95149224,64.3624936 5.13748252,65.5484079 C6.3415598,66.7472265 7.91254474,67.3963177 9.57525661,67.3963177 L90.0042598,67.3963177 C93.4601683,67.3963177 96.2778642,64.5857397 96.2778642,61.1299418 L96.2778642,32.4937913 L18.3267797,32.4937913 C17.8862321,32.4937913 17.472815,32.3234533 17.1614602,32.0111668 C16.8488136,31.6988804 16.678279,31.2872301 16.678279,30.8471901 C16.678279,29.9387205 17.4159701,29.1967176 18.3267797,29.1967176 L18.3267797,29.1967176 Z" id="Fill-34" fill="#1464A5"></path>
                        <path d="M41.9960709,44.9928626 C41.9960709,45.9013322 41.2570878,46.6394638 40.3475702,46.6394638 L14.0774979,46.6394638 C13.6356584,46.6394638 13.2235332,46.4691258 12.9108866,46.1568393 C12.5995318,45.8484242 12.4277053,45.4329026 12.4277053,44.9928626 C12.4277053,44.0843929 13.1679803,43.34239 14.0774979,43.34239 L40.3475702,43.3462614 C41.2570878,43.3462614 41.9960709,44.0843929 41.9960709,44.9928626" id="Fill-36" fill="#000000"></path>
                        <path d="M26.5017151,54.4222356 C26.5017151,55.3307052 25.762732,56.0727081 24.8532144,56.0727081 L14.0772395,56.0727081 C13.636692,56.0727081 13.2245668,55.8984987 12.9106282,55.5900836 C12.5992734,55.2777972 12.427447,54.8622755 12.427447,54.4222356 C12.427447,53.5137659 13.1677219,52.7756343 14.0772395,52.7756343 L24.8532144,52.7756343 C25.762732,52.7756343 26.5017151,53.5137659 26.5017151,54.4222356" id="Fill-38" fill="#000000"></path>
                        <path d="M36.4145526,54.4222356 C36.4145526,55.3307052 35.6755695,56.0727081 34.7660519,56.0727081 L33.3475145,56.0727081 C32.9082589,56.0727081 32.4948418,55.8984987 32.183487,55.5900836 C31.8695484,55.2777972 31.7003058,54.8622755 31.7003058,54.4222356 C31.7003058,53.5137659 32.4418727,52.7756343 33.3513903,52.7756343 L34.7660519,52.7756343 C35.2065995,52.7756343 35.6226005,52.9459724 35.9313713,53.2582588 C36.244018,53.5705453 36.4145526,53.9821956 36.4145526,54.4222356" id="Fill-40" fill="#000000"></path>
                        <path d="M85.4985303,43.3458742 L71.336411,43.3458742 C70.8958635,43.3458742 70.4798625,43.5162123 70.1672158,43.8284987 C69.8623207,44.134333 69.6840346,44.5601781 69.6840346,44.9924755 L69.6879104,54.4217194 C69.6879104,54.8617594 69.8584449,55.277281 70.1710916,55.5895674 C70.4798625,55.8979826 70.8958635,56.0721919 71.336411,56.0721919 L85.4985303,56.0721919 C86.4080479,56.0721919 87.1470309,55.3314795 87.1470309,54.4217194 L87.1470309,44.9924755 C87.1470309,44.5524355 86.9764964,44.1382043 86.6638497,43.8284987 C86.3550788,43.5162123 85.9390779,43.3458742 85.4985303,43.3458742 Z" id="Fill-42" fill="#000000"></path>
                        <path d="M92.1075193,16.7015176 C92.1075193,17.1415576 91.9331089,17.5532079 91.624338,17.8654944 C91.3116914,18.1777808 90.8956904,18.3481189 90.4551428,18.3481189 L89.0378974,18.3481189 C88.5973498,18.3481189 88.1852246,18.1777808 87.8725779,17.8654944 C87.5586393,17.5532079 87.3893967,17.1415576 87.3893967,16.7015176 C87.3893967,15.793048 88.1270878,15.0549164 89.0378974,15.0510451 L90.4551428,15.0510451 C91.3646604,15.0510451 92.1036435,15.793048 92.1075193,16.7015176" id="Fill-44" fill="#000000"></path>
                        <path d="M12.1863731,30.8471901 C12.1863731,31.7556598 11.4473901,32.4937913 10.5378725,32.4937913 L9.120627,32.4937913 C8.68007941,32.4937913 8.26795425,32.3234533 7.95530757,32.0111668 C7.6426609,31.6988804 7.47212635,31.2872301 7.47212635,30.8471901 C7.47212635,29.9387205 8.2111094,29.1967176 9.120627,29.1967176 L10.5378725,29.1967176 C11.4473901,29.1967176 12.1863731,29.9387205 12.1863731,30.8471901" id="Fill-45" fill="#000000"></path>
                    </g>
                    <rect id="Rectangle" fill="#8CBE28" x="73" y="46" width="12" height="7" rx="1"></rect>
                </g>
                <g id="creditos-mipymes-para-capital-de-trabajo-copy-3" transform="translate(57.002491, 155.500000) rotate(-22.000000) translate(-57.002491, -155.500000) translate(13.502491, 111.000000)">
                    <path d="M5.88671379,51.1222944 L21.1125891,51.7339976 C22.7244511,51.7987545 23.9965319,53.1265732 23.9921495,54.7397295 L23.9180695,82.0081501 C23.913577,83.6618163 22.5717529,85 20.9180805,85 L5.07527631,85 C3.41842206,85 2.07527631,83.6568542 2.07527631,82 C2.07527631,81.9752198 2.07558334,81.9504405 2.07619733,81.9256678 L2.76720624,54.0455441 C2.80825877,52.3891985 4.18427182,51.0797447 5.8406174,51.1207973 C5.85598647,51.1211782 5.87135239,51.1216772 5.88671379,51.1222944 Z" id="Rectangle" fill="#1464A5"></path>
                    <polygon id="Path-18" fill="#9ABD62" points="26 13.458911 35.2987717 52.8345079 69.1626889 52.8345079 75.4566692 57.5116105 73.2763275 61.3569359 79.3588503 63.8912047 79.3588503 66.4837516 75.4566692 70.9590882 75.4566692 75.2269671 73.2763275 78.7494051 69.1626889 78.7494051 69.1626889 82.9310061 69.1626889 85.228281 71.1857453 88 85 88 85 2.769467 43.1737672 0 43.1737672 7.42291093"></polygon>
                    <g id="Group-8">
                        <path d="M12.9324324,81.3745679 C12.6232297,81.3745679 12.3203463,81.2486732 12.1012297,81.0288734 C11.8822601,80.8095159 11.7567568,80.5055406 11.7567568,80.1952263 C11.7567568,79.8850595 11.8822601,79.5812316 12.1013767,79.3614319 C12.3200524,79.1417795 12.6230828,79.0158848 12.9324324,79.0158848 C13.2417821,79.0158848 13.5446655,79.1417795 13.7633412,79.3614319 C13.9826047,79.5810842 14.1081081,79.8850595 14.1081081,80.1952263 C14.1081081,80.5053932 13.9826047,80.809221 13.7634882,81.028726 C13.5446655,81.2486732 13.2416351,81.3745679 12.9324324,81.3745679" id="Fill-1" fill="#000000"></path>
                        <path d="M78.7696093,34.2009053 C78.4605805,34.2009053 78.1577204,34.0748632 77.9388739,33.8552109 C77.7200274,33.6357059 77.5945946,33.3317306 77.5945946,33.0215638 C77.5945946,32.711397 77.7200274,32.4075691 77.9390208,32.1877693 C78.1575735,31.9681169 78.4604336,31.8422222 78.7696093,31.8422222 C79.0787851,31.8422222 79.3816451,31.9681169 79.6003447,32.1877693 C79.8200725,32.4074217 79.9459459,32.7112495 79.9459459,33.0215638 C79.9459459,33.3320255 79.8200725,33.6357059 79.6007854,33.8547686 C79.3814982,34.0750106 79.0786382,34.2009053 78.7696093,34.2009053" id="Fill-3" fill="#000000"></path>
                        <g id="Group-7">
                            <mask id="mask-12" fill="white">
                                <use xlink:href="#path-11"></use>
                            </mask>
                            <g id="Clip-6"></g>
                            <path d="M41.495472,24.3098544 C40.7616236,25.5006425 39.7275567,26.467876 38.5052752,27.1069751 L38.2596886,27.2354886 L41.4553972,39.2182926 L42.1286197,39.1279343 L42.1286197,23.2827866 L41.495472,24.3098544 Z M64.5631453,39.0469412 C61.7435232,39.0469412 59.4496689,41.3698973 59.4496689,44.2252913 C59.4496689,47.0806853 61.7435232,49.4034679 64.5631453,49.4034679 C67.3825961,49.4034679 69.6762791,47.0805119 69.6762791,44.2251179 C69.6762791,41.3698973 67.3825961,39.0469412 64.5631453,39.0469412 L64.5631453,39.0469412 Z M27.6736039,13.5839163 L35.822661,44.3836352 L35.862222,44.4370525 C35.9697732,44.5829093 36.0471827,44.7464562 36.0917102,44.9233574 L37.9288146,52.2021495 L42.0794681,52.2021495 L35.2873028,26.7320138 C35.1915685,26.3737021 35.2398638,25.9992612 35.4227693,25.6775437 C35.6053323,25.3561731 35.901098,25.1262015 36.2554346,25.0299465 C38.8938638,24.3138433 40.4651728,21.5576527 39.7580409,18.8859238 C39.6633343,18.5279589 39.711972,18.1540383 39.8950488,17.8330146 C40.0779543,17.5121643 40.3733776,17.2825395 40.7268579,17.1866313 L42.1286197,16.8062937 L42.1286197,9.66156499 L27.6736039,13.5839163 Z M26.0307083,56.0738585 L26.0307083,80.3620511 L30.2837752,84.1186009 C31.2943795,85.0107381 32.5891039,85.5020726 33.929726,85.5020726 L66.389974,85.5020726 C67.9006571,85.5020726 69.1299602,84.2575204 69.1301315,82.727845 C69.1301315,81.1978228 67.9008283,79.9529237 66.389974,79.9529237 L53.2829445,79.9529237 C52.5275173,79.9529237 51.9128657,79.3304741 51.9128657,78.565463 C51.9128657,77.8004519 52.5275173,77.1780023 53.2829445,77.1780023 L72.2316472,77.1780023 C73.7425016,77.1780023 74.9718047,75.9331033 74.9718047,74.403081 C74.9718047,72.8730588 73.7425016,71.6281597 72.2316472,71.6281597 L53.2829445,71.6281597 C52.5275173,71.6281597 51.9128657,71.0057102 51.9128657,70.240699 C51.9128657,69.4756879 52.5275173,68.8532384 53.2829445,68.8532384 L75.8960941,68.8532384 C77.4069484,68.8532384 78.6362516,67.6083393 78.6362516,66.078317 C78.6362516,64.5482948 77.4069484,63.3033957 75.8960941,63.3033957 L53.2829445,63.3033957 C52.5275173,63.3033957 51.9128657,62.6809462 51.9128657,61.9159351 C51.9128657,61.1509239 52.5275173,60.5284744 53.2829445,60.5284744 L70.535661,60.5284744 C72.0465154,60.5284744 73.2758185,59.2835753 73.2758185,57.7535531 C73.2758185,56.2235308 72.0465154,54.9786317 70.535661,54.9786317 L36.8652909,54.9765505 C36.2389937,54.9765505 35.6931886,54.5474783 35.5378559,53.9328333 L34.0329957,47.9700476 L26.0307083,56.0738585 Z M71.3820272,80.4423504 C71.7058795,81.165044 71.8701177,81.9336972 71.8701177,82.7271513 C71.8701177,83.5206053 71.7058795,84.2892585 71.3820272,85.0119521 L71.162472,85.5020726 L84.2576846,85.5020726 L84.2576846,2.94816313 L44.8689484,2.95007089 L44.8689484,52.2037104 L48.899035,52.2037104 L48.899035,17.3317944 C48.899035,16.5667833 49.5136866,15.9443337 50.2691138,15.9443337 C53.0003657,15.9443337 55.2226335,13.6938725 55.2226335,10.9277963 C55.2226335,10.1627852 55.837285,9.54033561 56.5927122,9.54033561 L72.5328933,9.54033561 C73.2883205,9.54033561 73.902972,10.1627852 73.902972,10.9277963 C73.902972,13.6938725 76.1252398,15.9443337 78.8564917,15.9443337 C79.6119189,15.9443337 80.2265705,16.5667833 80.2265705,17.3317944 L80.2265705,24.2722195 C80.2265705,25.0372306 79.6119189,25.6596802 78.8564917,25.6596802 C78.1010646,25.6596802 77.486413,25.0372306 77.486413,24.2722195 L77.486413,18.6008006 L77.21685,18.5413132 C74.284539,17.8942363 71.9773264,15.5575791 71.3383559,12.5882398 L71.279785,12.3152569 L57.845478,12.3152569 L57.7867358,12.5882398 C57.1481079,15.5575791 54.840724,17.8942363 51.9085843,18.5413132 L51.6390213,18.6008006 L51.6390213,52.2038838 L61.3431177,52.2038838 L61.4780705,51.5382496 C58.5812102,50.2799962 56.7091689,47.4093401 56.7091689,44.2251179 C56.7091689,39.8397016 60.2323264,36.2718465 64.5628028,36.2718465 C68.8931079,36.2718465 72.4160941,39.8397016 72.4160941,44.2251179 C72.4160941,47.4095135 70.5443953,50.2801696 67.647535,51.5382496 L67.7824878,52.2038838 L70.5354898,52.2038838 C73.5571984,52.2038838 76.0156335,54.6933351 76.0156335,57.7535531 C76.0156335,58.5471806 75.8513953,59.3158338 75.5275429,60.0383539 L75.3078165,60.5284744 L75.8957516,60.5284744 C76.2870803,60.5284744 76.6821768,60.5721794 77.0707654,60.6583754 L77.4865843,60.7504681 L77.4865843,40.5842477 C77.4865843,39.8192365 78.1012358,39.196787 78.856663,39.196787 C79.6120902,39.196787 80.2267417,39.8192365 80.2267417,40.5842477 L80.2267417,62.6799056 L80.2943894,62.7721717 C81.002035,63.734896 81.3760665,64.8779901 81.3760665,66.0779702 C81.3760665,68.5684621 79.7186138,70.7689747 77.3456374,71.4290591 L76.9424917,71.5410965 L77.1301925,71.919353 C77.5160409,72.696331 77.7116197,73.5319292 77.7116197,74.4025607 C77.7116197,77.4627787 75.2533559,79.9522299 72.2316472,79.9522299 L71.162472,79.9522299 L71.3820272,80.4423504 Z M4.79500157,53.0710468 C3.6617752,53.0710468 2.73988346,54.0046344 2.73988346,55.1522378 L2.73988346,83.421055 C2.73988346,84.5686584 3.6617752,85.502246 4.79500157,85.502246 L21.2354327,85.502246 C22.3684878,85.502246 23.290722,84.5686584 23.290722,83.421055 L23.290722,55.1522378 C23.290722,54.0046344 22.3686591,53.0710468 21.2356039,53.0710468 L14.3853815,53.0710468 L14.3853815,73.3964783 C14.3853815,74.1614894 13.7707299,74.783939 13.0153028,74.783939 C12.2598756,74.783939 11.645224,74.1614894 11.645224,73.3964783 L11.645224,53.0710468 L4.79500157,53.0710468 Z M33.9300685,88.2771674 C31.9273559,88.2771674 29.992976,87.5430272 28.4833205,86.209851 L26.0245429,84.038475 L25.8894189,84.5894703 C25.3578283,86.7606729 23.4441709,88.2771674 21.2357752,88.2771674 L4.79517283,88.2771674 C2.15109213,88.2771674 6.8503937e-05,86.0986807 6.8503937e-05,83.4208816 L6.8503937e-05,55.1520643 C6.8503937e-05,52.4746121 2.15109213,50.2961254 4.79517283,50.2961254 L21.2356039,50.2961254 C22.8165035,50.2961254 24.2963598,51.0885389 25.1941039,52.4158185 L25.4271886,52.760429 L33.1371354,44.9526676 L24.6724465,12.9618136 C24.5775685,12.6038488 24.6262063,12.2301015 24.8091118,11.9092513 C24.9921886,11.5882275 25.2876118,11.3586028 25.6412634,11.2626946 L42.1286197,6.78882768 L42.1286197,1.56295709 C42.1286197,0.797945971 42.7431,0.175496431 43.4985272,0.175496431 L85.6274209,0.173241807 C85.9880941,0.173241807 86.3414031,0.321526665 86.5965803,0.579767781 C86.8550114,0.841477549 86.9978421,1.18990361 86.9978421,1.56104934 L86.9978421,86.8897067 C86.9978421,87.6547178 86.3831906,88.2771674 85.6277634,88.2771674 L33.9300685,88.2771674 Z" id="Fill-5" fill="#000000" mask="url(#mask-12)"></path>
                        </g>
                    </g>
                </g>
            </g>
        </g>
    </g>
</svg>